name C:\Users\u0101727\Documents\MyRepositories\upper-imu-dc\Results\main_tracking\Case_45\FLX01_angularVelocities_groundFrame.mot
datacolumns 4
datarows 105
range 2.00600000 2.63000000
endheader 
time	radius_imu_x	radius_imu_y	radius_imu_z	
          2.00600000	         -0.78955978	          0.64798832	          0.99741281	
          2.01200000	         -0.79846071	          0.60486177	          0.99794712	
          2.01800000	         -0.80604567	          0.56281885	          0.99786310	
          2.02400000	         -0.81221078	          0.52200308	          0.99717502	
          2.03000000	         -0.81687285	          0.48254686	          0.99590288	
          2.03600000	         -0.81996970	          0.44457004	          0.99407195	
          2.04200000	         -0.82146166	          0.40817822	          0.99171234	
          2.04800000	         -0.82133317	          0.37346093	          0.98885840	
          2.05400000	         -0.81959414	          0.34048988	          0.98554800	
          2.06000000	         -0.81628171	          0.30931691	          0.98182187	
          2.06600000	         -0.81146148	          0.27997199	          0.97772278	
          2.07200000	         -0.80522820	          0.25246127	          0.97329484	
          2.07800000	         -0.79770584	          0.22676533	          0.96858263	
          2.08400000	         -0.78904643	          0.20283796	          0.96363044	
          2.09000000	         -0.77942698	          0.18060615	          0.95848187	
          2.09600000	         -0.76904662	          0.15997008	          0.95317880	
          2.10200000	         -0.75812059	          0.14080531	          0.94776084	
          2.10800000	         -0.74687304	          0.12296628	          0.94226500	
          2.11400000	         -0.73553080	          0.10628980	          0.93672485	
          2.12000000	         -0.72431420	          0.09060107	          0.93117058	
          2.12600000	         -0.71343036	          0.07571878	          0.92562857	
          2.13200000	         -0.70306447	          0.06146219	          0.92012198	
          2.13800000	         -0.69337257	          0.04765788	          0.91467163	
          2.14400000	         -0.68447790	          0.03414444	          0.90929637	
          2.15000000	         -0.67646827	          0.02077684	          0.90401401	
          2.15600000	         -0.66939574	          0.00742934	          0.89884192	
          2.16200000	         -0.66327885	         -0.00600326	          0.89379727	
          2.16800000	         -0.65810600	         -0.01960519	          0.88889718	
          2.17400000	         -0.65383938	         -0.03343992	          0.88415843	
          2.18000000	         -0.65041991	         -0.04755118	          0.87959683	
          2.18600000	         -0.64777119	         -0.06196359	          0.87522680	
          2.19200000	         -0.64580405	         -0.07668402	          0.87106043	
          2.19800000	         -0.64442057	         -0.09170291	          0.86710672	
          2.20400000	         -0.64351692	         -0.10699524	          0.86337125	
          2.21000000	         -0.64298685	         -0.12252245	          0.85985568	
          2.21600000	         -0.64272433	         -0.13823427	          0.85655784	
          2.22200000	         -0.64262717	         -0.15407212	          0.85347171	
          2.22800000	         -0.64260064	         -0.16997299	          0.85058754	
          2.23400000	         -0.64255983	         -0.18587298	          0.84789235	
          2.24000000	         -0.64243233	         -0.20171158	          0.84537027	
          2.24600000	         -0.64215944	         -0.21743496	          0.84300289	
          2.25200000	         -0.64169683	         -0.23299907	          0.84076962	
          2.25800000	         -0.64101425	         -0.24837180	          0.83864776	
          2.26400000	         -0.64009413	         -0.26353378	          0.83661262	
          2.27000000	         -0.63892932	         -0.27847800	          0.83463752	
          2.27600000	         -0.63752085	         -0.29320884	          0.83269372	
          2.28200000	         -0.63587446	         -0.30773925	          0.83075056	
          2.28800000	         -0.63399723	         -0.32208738	          0.82877571	
          2.29400000	         -0.63189484	         -0.33627311	          0.82673553	
          2.30000000	         -0.62956860	         -0.35031370	          0.82459567	
          2.30600000	         -0.62701348	         -0.36422014	          0.82232183	
          2.31200000	         -0.62421626	         -0.37799308	          0.81988072	
          2.31800000	         -0.62115452	         -0.39161965	          0.81724101	
          2.32400000	         -0.61779698	         -0.40507157	          0.81437442	
          2.33000000	         -0.61410464	         -0.41830451	          0.81125652	
          2.33600000	         -0.61003257	         -0.43125844	          0.80786772	
          2.34200000	         -0.60553306	         -0.44386026	          0.80419377	
          2.34800000	         -0.60055920	         -0.45602742	          0.80022606	
          2.35400000	         -0.59506776	         -0.46767158	          0.79596196	
          2.36000000	         -0.58902272	         -0.47870363	          0.79140461	
          2.36600000	         -0.58239749	         -0.48903758	          0.78656283	
          2.37200000	         -0.57517750	         -0.49859530	          0.78145053	
          2.37800000	         -0.56736214	         -0.50731039	          0.77608610	
          2.38400000	         -0.55896546	         -0.51513070	          0.77049173	
          2.39000000	         -0.55001666	         -0.52202021	          0.76469264	
          2.39600000	         -0.54055981	         -0.52795988	          0.75871622	
          2.40200000	         -0.53065273	         -0.53294721	          0.75259125	
          2.40800000	         -0.52036543	         -0.53699517	          0.74634719	
          2.41400000	         -0.50977824	         -0.54013067	          0.74001341	
          2.42000000	         -0.49897934	         -0.54239231	          0.73361878	
          2.42600000	         -0.48806252	         -0.54382852	          0.72719110	
          2.43200000	         -0.47712413	         -0.54449473	          0.72075693	
          2.43800000	         -0.46626002	         -0.54445055	          0.71434147	
          2.44400000	         -0.45556307	         -0.54375769	          0.70796855	
          2.45000000	         -0.44512018	         -0.54247712	          0.70166077	
          2.45600000	         -0.43501004	         -0.54066718	          0.69543967	
          2.46200000	         -0.42530061	         -0.53838107	          0.68932610	
          2.46800000	         -0.41604698	         -0.53566484	          0.68334049	
          2.47400000	         -0.40729027	         -0.53255643	          0.67750309	
          2.48000000	         -0.39905684	         -0.52908506	          0.67183403	
          2.48600000	         -0.39135827	         -0.52527134	          0.66635343	
          2.49200000	         -0.38419216	         -0.52112858	          0.66108119	
          2.49800000	         -0.37754357	         -0.51666457	          0.65603666	
          2.50400000	         -0.37138679	         -0.51188364	          0.65123841	
          2.51000000	         -0.36568774	         -0.50678922	          0.64670361	
          2.51600000	         -0.36040616	         -0.50138575	          0.64244769	
          2.52200000	         -0.35549829	         -0.49568095	          0.63848359	
          2.52800000	         -0.35091948	         -0.48968763	          0.63482113	
          2.53400000	         -0.34662629	         -0.48342458	          0.63146646	
          2.54000000	         -0.34257858	         -0.47691734	          0.62842158	
          2.54600000	         -0.33874104	         -0.47019839	          0.62568384	
          2.55200000	         -0.33508445	         -0.46330677	          0.62324580	
          2.55800000	         -0.33158638	         -0.45628739	          0.62109514	
          2.56400000	         -0.32823150	         -0.44919016	          0.61921478	
          2.57000000	         -0.32501132	         -0.44206867	          0.61758333	
          2.57600000	         -0.32192386	         -0.43497931	          0.61617563	
          2.58200000	         -0.31897267	         -0.42797963	          0.61496367	
          2.58800000	         -0.31616562	         -0.42112679	          0.61391772	
          2.59400000	         -0.31351384	         -0.41447645	          0.61300736	
          2.60000000	         -0.31103025	         -0.40808109	          0.61220286	
          2.60600000	         -0.30872840	         -0.40198890	          0.61147627	
          2.61200000	         -0.30662102	         -0.39624215	          0.61080257	
          2.61800000	         -0.30471866	         -0.39087571	          0.61016060	
          2.62400000	         -0.30302886	         -0.38591625	          0.60953357	
          2.63000000	         -0.30155518	         -0.38138138	          0.60890928	
